<svg width="107" height="106" viewBox="0 0 107 106" fill="none" xmlns="http://www.w3.org/2000/svg">
<path d="M72.7056 52.7995C70.8046 78.6782 55.3849 99.6751 49.7016 100.049C43.3327 98.9765 31.8207 77.5583 33.5819 53.5833C35.2733 30.5589 48.0212 7.91346 56.586 6.33389C63.7196 8.96982 74.6067 26.9208 72.7056 52.7995ZM34.8861 53.5572C33.3078 75.0426 45.4397 98.4741 50.5059 97.8723C54.8028 97.3619 69.6271 76.979 71.4015 52.8256C73.1758 28.6723 60.6568 7.30652 56.4035 8.86518C50.8621 6.81762 36.4644 32.0719 34.8861 53.5572Z" fill="#E9A8BE"/>
<path d="M53.7372 100.675C53.0631 102.5 51.249 103.511 49.6853 102.933C48.1217 102.355 47.4007 100.408 48.0749 98.5832C48.749 96.7586 50.5631 95.7479 52.1268 96.3257C53.6904 96.9035 54.4114 98.8509 53.7372 100.675Z" fill="#E9A8BE"/>
<path d="M58.0843 6.80431C57.4101 8.62888 55.596 9.63961 54.0324 9.06184C52.4688 8.48407 51.7477 6.53659 52.4219 4.71203C53.0961 2.88746 54.9102 1.87673 56.4738 2.4545C58.0375 3.03227 58.7585 4.97975 58.0843 6.80431Z" fill="#E9A8BE"/>
<path d="M54.0918 33.3012C79.8694 36.2742 100.209 52.5518 100.346 58.2456C99.0105 64.5645 77.1332 75.1781 53.2519 72.4238C30.3175 69.7787 8.22038 56.1022 6.99748 47.4793C9.92709 40.4611 28.3143 30.3282 54.0918 33.3012ZM53.2799 71.1196C74.6813 73.5879 98.596 62.4385 98.2049 57.3517C97.8731 53.0374 78.1228 37.3802 54.0638 34.6054C30.0049 31.8305 8.13816 43.4523 9.51902 47.7667C7.24333 53.2184 31.8785 68.6513 53.2799 71.1196Z" fill="#E77A9F"/>
<path d="M101.14 54.2395C102.935 54.9888 103.869 56.8432 103.227 58.3815C102.585 59.9199 100.609 60.5595 98.8143 59.8102C97.0193 59.0609 96.0847 57.2064 96.7268 55.6681C97.369 54.1298 99.3447 53.4902 101.14 54.2395Z" fill="#E77A9F"/>
<path d="M7.52966 46.0018C9.32469 46.7511 10.2593 48.6056 9.61715 50.1439C8.97501 51.6822 6.99929 52.3218 5.20427 51.5725C3.40924 50.8232 2.47464 48.9687 3.11678 47.4304C3.75892 45.8921 5.73464 45.2525 7.52966 46.0018Z" fill="#E77A9F"/>
<path d="M62.6803 33.8351C86.6083 46.4131 99.2821 70.4098 96.8806 76.2122C92.7572 82.0987 66.5975 84.6929 44.4296 73.0401C23.1407 61.8493 7.58609 39.827 10.2293 30.6629C16.2256 24.6622 38.7522 21.257 62.6803 33.8351ZM45.038 71.7332C64.9039 82.1759 93.2981 79.7973 95.181 74.5139C96.7779 70.0328 84.4047 46.8815 62.0719 35.142C39.7391 23.4024 13.1407 27.019 12.5715 31.8898C7.91362 36.5511 25.1721 61.2905 45.038 71.7332Z" fill="#E5497E"/>
<path d="M99.4424 72.4604C100.867 73.884 100.957 76.1043 99.6422 77.4196C98.3279 78.7349 96.1075 78.6471 94.6829 77.2235C93.2582 75.7999 93.1687 73.5796 94.4831 72.2643C95.7974 70.949 98.0178 71.0368 99.4424 72.4604Z" fill="#E5497E"/>
<path d="M11.4089 29.3682C12.8335 30.7918 12.923 33.0121 11.6087 34.3274C10.2943 35.6427 8.07393 35.5549 6.64926 34.1313C5.22459 32.7077 5.13513 30.4873 6.44946 29.172C7.76378 27.8567 9.98418 27.9445 11.4089 29.3682Z" fill="#E5497E"/>
<path d="M74.39 46.3386C82.7233 71.1164 74.39 96 68.3585 98.306C60.9999 99.5 39.8698 83.5 32.1496 60.5449C24.7354 38.5 29.4999 13 38.1811 8.57758C46.9999 8.57758 66.0568 21.5608 74.39 46.3386ZM33.5576 60.0714C40.4762 80.6427 63.0898 98.306 68.3585 96C72.8272 94.0442 80.7596 69.9381 72.9819 46.8122C65.2043 23.6863 42.9999 8.08207 38.9999 11C32.1496 11 26.6391 39.5 33.5576 60.0714Z" fill="#DF2F6B"/>
<path d="M72.9999 97.5C72.9999 99.433 71.4329 101 69.4999 101C67.5669 101 65.9999 99.433 65.9999 97.5C65.9999 95.567 67.5669 94 69.4999 94C71.4329 94 72.9999 95.567 72.9999 97.5Z" fill="#DF2F6B"/>
<path d="M39.9999 8.5C39.9999 10.433 38.4329 12 36.4999 12C34.5669 12 32.9999 10.433 32.9999 8.5C32.9999 6.567 34.5669 5 36.4999 5C38.4329 5 39.9999 6.567 39.9999 8.5Z" fill="#DF2F6B"/>
<path d="M83.5 26C69.75 36.0492 62.4786 42.3992 51.5 57C47.3206 49.941 38.8599 46.672 37.094 47.4508C37.0403 47.4745 37.0244 47.5325 37.0597 47.5795C38.0862 48.946 52.0184 67.4631 52.5 66.5C53 65.5 71.6225 39.1166 83.5 26Z" fill="#E91E63" stroke="white"/>
</svg>
