<svg xmlns="http://www.w3.org/2000/svg" version="1.1" xmlns:xlink="http://www.w3.org/1999/xlink" width="300" height="300"><svg width="300" height="300" viewBox="0 0 300 300" fill="none" xmlns="http://www.w3.org/2000/svg">
<rect width="300" height="300" rx="38" fill="#FFE9F1"></rect>
<path d="M183.197 149.929C179.955 194.056 153.663 229.858 143.972 230.496C133.112 228.667 113.483 192.146 116.486 151.266C119.37 112.006 141.107 73.3929 155.711 70.6995C167.875 75.1942 186.438 105.803 183.197 149.929ZM118.71 151.221C116.019 187.857 136.705 227.81 145.343 226.784C152.67 225.914 177.948 191.158 180.973 149.974C183.998 108.789 162.652 72.358 155.4 75.0157C145.951 71.5244 121.401 114.586 118.71 151.221Z" fill="#E9A8BE"></path>
<path d="M150.853 231.564C149.704 234.675 146.61 236.399 143.944 235.413C141.278 234.428 140.049 231.108 141.198 227.996C142.348 224.885 145.441 223.162 148.107 224.147C150.773 225.132 152.003 228.453 150.853 231.564Z" fill="#E9A8BE"></path>
<path d="M158.266 71.5017C157.116 74.6128 154.023 76.3362 151.357 75.3511C148.69 74.3659 147.461 71.0452 148.611 67.9341C149.76 64.823 152.853 63.0995 155.52 64.0847C158.186 65.0699 159.415 68.3906 158.266 71.5017Z" fill="#E9A8BE"></path>
<path d="M151.459 116.682C195.413 121.752 230.094 149.507 230.328 159.216C228.051 169.99 190.747 188.088 150.027 183.391C110.92 178.881 73.2421 155.561 71.1569 140.858C76.1522 128.891 107.505 111.613 151.459 116.682ZM150.074 181.167C186.566 185.376 227.344 166.365 226.677 157.691C226.111 150.335 192.435 123.637 151.411 118.906C110.387 114.174 73.1019 133.991 75.4564 141.348C71.5761 150.643 113.582 176.959 150.074 181.167Z" fill="#E77A9F"></path>
<path d="M231.681 152.385C234.742 153.662 236.336 156.824 235.241 159.447C234.146 162.07 230.777 163.161 227.716 161.883C224.655 160.606 223.062 157.444 224.157 154.821C225.252 152.198 228.621 151.107 231.681 152.385Z" fill="#E77A9F"></path>
<path d="M72.0643 138.338C75.125 139.616 76.7187 142.778 75.6237 145.401C74.5288 148.024 71.16 149.115 68.0992 147.837C65.0385 146.559 63.4449 143.397 64.5398 140.774C65.6347 138.151 69.0036 137.061 72.0643 138.338Z" fill="#E77A9F"></path>
<path d="M166.101 117.593C206.901 139.04 228.512 179.957 224.417 189.851C217.386 199.888 172.78 204.312 134.981 184.442C98.6812 165.361 72.1586 127.81 76.6656 112.184C86.8901 101.952 125.301 96.1455 166.101 117.593ZM136.019 182.214C169.893 200.02 218.308 195.964 221.519 186.955C224.242 179.314 203.144 139.839 165.064 119.821C126.983 99.8038 81.6298 105.971 80.6593 114.276C72.7171 122.224 102.145 164.408 136.019 182.214Z" fill="#E5497E"></path>
<path d="M228.785 183.454C231.214 185.881 231.367 189.667 229.126 191.91C226.885 194.153 223.099 194.003 220.67 191.576C218.24 189.148 218.088 185.362 220.329 183.119C222.57 180.877 226.356 181.026 228.785 183.454Z" fill="#E5497E"></path>
<path d="M78.6769 109.976C81.1061 112.404 81.2586 116.19 79.0176 118.432C76.7765 120.675 72.9904 120.525 70.5612 118.098C68.1319 115.67 67.9794 111.884 70.2205 109.642C72.4616 107.399 76.2476 107.549 78.6769 109.976Z" fill="#E5497E"></path>
<path d="M186.068 138.913C200.277 181.162 186.068 223.592 175.784 227.524C163.236 229.56 127.207 202.278 114.043 163.137C101.401 125.547 109.525 82.0664 124.327 74.5256C139.365 74.5256 171.859 96.6637 186.068 138.913ZM116.444 162.329C128.241 197.406 166.8 227.524 175.784 223.592C183.403 220.257 196.929 179.153 183.667 139.721C170.405 100.288 132.544 73.6807 125.724 78.6562C114.043 78.6562 104.647 127.252 116.444 162.329Z" fill="#DF2F6B"></path>
<path d="M183.698 226.15C183.698 229.446 181.026 232.118 177.73 232.118C174.434 232.118 171.762 229.446 171.762 226.15C171.762 222.854 174.434 220.182 177.73 220.182C181.026 220.182 183.698 222.854 183.698 226.15Z" fill="#DF2F6B"></path>
<path d="M127.429 74.3934C127.429 77.6894 124.757 80.3613 121.461 80.3613C118.165 80.3613 115.493 77.6894 115.493 74.3934C115.493 71.0974 118.165 68.4254 121.461 68.4254C124.757 68.4254 127.429 71.0974 127.429 74.3934Z" fill="#DF2F6B"></path>
<path d="M201.603 104.233C178.158 121.368 165.759 132.196 147.039 157.092C139.856 144.96 125.257 139.393 122.406 140.842C122.353 140.869 122.338 140.924 122.373 140.971C123.724 142.77 147.915 174.948 148.744 173.291C149.597 171.585 181.35 126.598 201.603 104.233Z" fill="#E91E63" stroke="white"></path>
</svg><style>@media (prefers-color-scheme: light) { :root { filter: none; } }
@media (prefers-color-scheme: dark) { :root { filter: none; } }
</style></svg>